<svg width="106" height="131" viewBox="0 0 106 131" fill="none" xmlns="http://www.w3.org/2000/svg">
<g id="Logo">
<g id="Vector" filter="url(#filter0_d_14_267)">
<path fill-rule="evenodd" clip-rule="evenodd" d="M79.0655 4.66187L77.1846 9.80173L66.665 9.38015L56.1455 8.95979V13.2209V17.4821L64.0123 17.9858C68.339 18.264 72.2054 18.8204 72.6047 19.2224C73.0053 19.6243 72.4708 22.0288 71.4178 24.5632C70.3659 27.0988 69.6781 29.3477 69.8887 29.5609C70.4585 30.1344 100.049 25.4517 100.831 24.6649C101.424 24.0669 83.7939 1.2929 81.7547 0.0244797C81.3104 -0.251264 80.1003 1.83458 79.0655 4.66187ZM39.8992 6.52835C38.1218 8.50512 37.8844 12.9734 37.8844 44.5197C37.8844 67.5363 37.451 80.2695 36.667 80.2695C35.9305 80.2695 35.4496 75.05 35.4496 67.062C35.4496 51.9255 34.0642 48.4058 28.1038 48.4058C21.4544 48.4058 20.5316 51.7981 21.0197 74.4544C21.4434 94.1621 21.5006 94.5236 25.4572 102.612C29.8155 111.522 36.0461 117.749 45.0963 122.238C49.6932 124.518 52.688 125.001 62.2325 125C72.606 124.999 74.5246 124.629 80.8466 121.407C89.092 117.206 96.685 109.392 100.369 101.319C102.729 96.1474 102.985 93.4721 103 73.8845C103.017 50.0064 102.471 48.0994 95.61 48.0994C90.9887 48.0994 89.0153 51.3789 89.0153 59.0569C89.0153 62.6354 88.4675 65.5632 87.7979 65.5632C87.0906 65.5632 86.5805 61.5692 86.5805 56.0323C86.5805 44.9253 84.7228 41.0527 79.3954 41.0527C73.81 41.0527 71.9717 44.3383 71.9717 54.3239C71.9717 59.3657 71.4531 63.1121 70.7543 63.1121C70.0433 63.1121 69.5369 59.0005 69.5369 53.227C69.5369 42.4828 68.3804 39.0097 64.2838 37.4521C61.5714 36.4202 57.5333 37.794 55.8594 40.3173C55.3675 41.0588 54.9573 45.9388 54.9463 51.1632C54.9354 56.6659 54.4155 60.6611 53.7107 60.6611C52.9376 60.6611 52.4933 51.3569 52.4933 35.1983C52.4933 14.1352 52.1658 9.26372 50.5978 7.0112C48.2579 3.64714 42.7139 3.39713 39.8992 6.52835ZM25.3793 17.9833L17.1362 21.8523L13.6435 18.4834C11.7224 16.6316 9.87077 15.574 9.52746 16.1352C8.19684 18.313 2.42149 41.3014 3.04723 41.9314C3.63645 42.5257 10.6049 41.0281 24.9422 37.2266L29.6536 35.9777L26.464 32.6272C24.7109 30.784 23.2756 28.9383 23.2756 28.5253C23.2756 28.1123 25.7408 26.8267 28.7539 25.6686C33.94 23.6747 34.2322 23.3107 34.2322 18.8265C34.2322 16.2223 34.0959 14.096 33.9279 14.1021C33.7599 14.1082 29.9141 15.8546 25.3793 17.9833Z" fill="#D46162"/>
</g>
</g>
<defs>
<filter id="filter0_d_14_267" x="0.251908" y="0" width="105.496" height="130.496" filterUnits="userSpaceOnUse" color-interpolation-filters="sRGB">
<feFlood flood-opacity="0" result="BackgroundImageFix"/>
<feColorMatrix in="SourceAlpha" type="matrix" values="0 0 0 0 0 0 0 0 0 0 0 0 0 0 0 0 0 0 127 0" result="hardAlpha"/>
<feOffset dy="2.74809"/>
<feGaussianBlur stdDeviation="1.37405"/>
<feComposite in2="hardAlpha" operator="out"/>
<feColorMatrix type="matrix" values="0 0 0 0 0 0 0 0 0 0 0 0 0 0 0 0 0 0 0.25 0"/>
<feBlend mode="normal" in2="BackgroundImageFix" result="effect1_dropShadow_14_267"/>
<feBlend mode="normal" in="SourceGraphic" in2="effect1_dropShadow_14_267" result="shape"/>
</filter>
</defs>
</svg>
